%TF.GenerationSoftware,KiCad,Pcbnew,10.0.0*%
%TF.CreationDate,2026-04-13T19:27:24-04:00*%
%TF.ProjectId,DMX Decoder 6ch iCE40UP5k FPGA,444d5820-4465-4636-9f64-657220366368,2*%
%TF.SameCoordinates,Original*%
%TF.FileFunction,Copper,L4,Bot*%
%TF.FilePolarity,Positive*%
%FSLAX46Y46*%
G04 Gerber Fmt 4.6, Leading zero omitted, Abs format (unit mm)*
G04 Created by KiCad (PCBNEW 10.0.0) date 2026-04-13 19:27:24*
%MOMM*%
%LPD*%
G01*
G04 APERTURE LIST*
G04 Aperture macros list*
%AMRoundRect*
0 Rectangle with rounded corners*
0 $1 Rounding radius*
0 $2 $3 $4 $5 $6 $7 $8 $9 X,Y pos of 4 corners*
0 Add a 4 corners polygon primitive as box body*
4,1,4,$2,$3,$4,$5,$6,$7,$8,$9,$2,$3,0*
0 Add four circle primitives for the rounded corners*
1,1,$1+$1,$2,$3*
1,1,$1+$1,$4,$5*
1,1,$1+$1,$6,$7*
1,1,$1+$1,$8,$9*
0 Add four rect primitives between the rounded corners*
20,1,$1+$1,$2,$3,$4,$5,0*
20,1,$1+$1,$4,$5,$6,$7,0*
20,1,$1+$1,$6,$7,$8,$9,0*
20,1,$1+$1,$8,$9,$2,$3,0*%
G04 Aperture macros list end*
%TA.AperFunction,ComponentPad*%
%ADD10C,2.900000*%
%TD*%
%TA.AperFunction,ComponentPad*%
%ADD11RoundRect,0.250001X1.149999X-1.149999X1.149999X1.149999X-1.149999X1.149999X-1.149999X-1.149999X0*%
%TD*%
%TA.AperFunction,ComponentPad*%
%ADD12C,2.800000*%
%TD*%
%TA.AperFunction,ComponentPad*%
%ADD13C,3.400000*%
%TD*%
%TA.AperFunction,ComponentPad*%
%ADD14R,1.000000X1.000000*%
%TD*%
%TA.AperFunction,ComponentPad*%
%ADD15C,1.000000*%
%TD*%
%TA.AperFunction,ComponentPad*%
%ADD16C,1.400000*%
%TD*%
%TA.AperFunction,ComponentPad*%
%ADD17R,3.500000X3.500000*%
%TD*%
%TA.AperFunction,ComponentPad*%
%ADD18RoundRect,0.750000X-0.750000X-1.000000X0.750000X-1.000000X0.750000X1.000000X-0.750000X1.000000X0*%
%TD*%
%TA.AperFunction,ComponentPad*%
%ADD19RoundRect,0.875000X-0.875000X-0.875000X0.875000X-0.875000X0.875000X0.875000X-0.875000X0.875000X0*%
%TD*%
%TA.AperFunction,ComponentPad*%
%ADD20R,1.700000X1.700000*%
%TD*%
%TA.AperFunction,ComponentPad*%
%ADD21C,1.700000*%
%TD*%
%TA.AperFunction,ViaPad*%
%ADD22C,0.508000*%
%TD*%
%TA.AperFunction,ViaPad*%
%ADD23C,0.635000*%
%TD*%
%TA.AperFunction,ViaPad*%
%ADD24C,1.016000*%
%TD*%
%TA.AperFunction,ViaPad*%
%ADD25C,0.381000*%
%TD*%
%TA.AperFunction,ViaPad*%
%ADD26C,0.600000*%
%TD*%
%TA.AperFunction,Conductor*%
%ADD27C,2.540000*%
%TD*%
%TA.AperFunction,Conductor*%
%ADD28C,1.270000*%
%TD*%
%TA.AperFunction,Conductor*%
%ADD29C,0.381000*%
%TD*%
%TA.AperFunction,Conductor*%
%ADD30C,0.254000*%
%TD*%
G04 APERTURE END LIST*
D10*
%TO.P,J4,1,P1_1*%
%TO.N,Net-(J3-P1)*%
X130255000Y-82169000D03*
%TO.P,J4,2,P2_2*%
%TO.N,/DMX 1-*%
X129620000Y-85344000D03*
%TO.P,J4,3,P3_3*%
%TO.N,/DMX 1+*%
X126445000Y-87249000D03*
%TO.P,J4,4,P3_4*%
%TO.N,/DMX 2-*%
X123270000Y-85344000D03*
%TO.P,J4,5,P5_5*%
%TO.N,/DMX 2+*%
X122635000Y-81534000D03*
%TO.P,J4,G*%
%TO.N,GNDREF*%
X134700000Y-92964000D03*
%TD*%
D11*
%TO.P,J6,1,Pin_1_1*%
%TO.N,+24V*%
X201295000Y-112232000D03*
D12*
%TO.P,J6,2,Pin_2_2*%
X201295000Y-107232000D03*
%TD*%
D11*
%TO.P,J1,1,Pin_1_1*%
%TO.N,Net-(J1-Pin_1)*%
X201262500Y-98864000D03*
D12*
%TO.P,J1,2,Pin_2_2*%
%TO.N,Net-(J1-Pin_2)*%
X201262500Y-93864000D03*
%TO.P,J1,3,Pin_3_3*%
%TO.N,Net-(J1-Pin_3)*%
X201262500Y-88864000D03*
%TO.P,J1,4,Pin_4_4*%
%TO.N,Net-(J1-Pin_4)*%
X201262500Y-83864000D03*
%TO.P,J1,5,Pin_5_5*%
%TO.N,Net-(J1-Pin_5)*%
X201262500Y-78864000D03*
%TO.P,J1,6,Pin_6_6*%
%TO.N,Net-(J1-Pin_6)*%
X201262500Y-73864000D03*
%TD*%
D10*
%TO.P,J3,1,P1_1*%
%TO.N,Net-(J3-P1)*%
X84074000Y-82169000D03*
D13*
%TO.P,J3,2,P2_2*%
%TO.N,/DMX 1-*%
X85344000Y-85344000D03*
D10*
%TO.P,J3,3,P3_3*%
%TO.N,/DMX 1+*%
X88519000Y-87249000D03*
D13*
%TO.P,J3,4,P3_4*%
%TO.N,/DMX 2-*%
X91694000Y-85344000D03*
D10*
%TO.P,J3,5,P5_5*%
%TO.N,/DMX 2+*%
X92329000Y-81534000D03*
%TO.P,J3,G*%
%TO.N,GNDREF*%
X88519000Y-91054000D03*
%TD*%
D14*
%TO.P,JP1,1,A_1*%
%TO.N,GNDREF*%
X152569000Y-91242500D03*
D15*
%TO.P,JP1,2,B_2*%
%TO.N,Net-(JP1-B)*%
X153839000Y-91242500D03*
%TD*%
D16*
%TO.P,TP3,1,1_1*%
%TO.N,Net-(U1A-RGB0)*%
X146812000Y-70739000D03*
%TD*%
D17*
%TO.P,J2,1*%
%TO.N,Net-(J2-Pad1)*%
X86573000Y-102743000D03*
D18*
%TO.P,J2,2*%
%TO.N,GNDREF*%
X80573000Y-102743000D03*
D19*
%TO.P,J2,MP,MountPin_MP*%
X83573000Y-107443000D03*
%TD*%
D20*
%TO.P,J5,1,Pin_1_1*%
%TO.N,+3.3V*%
X151934000Y-102672500D03*
D21*
%TO.P,J5,2,Pin_2_2*%
%TO.N,GNDREF*%
X154474000Y-102672500D03*
%TO.P,J5,3,Pin_3_3*%
%TO.N,Net-(J5-Pin_3)*%
X157014000Y-102672500D03*
%TO.P,J5,4,Pin_4_4*%
%TO.N,Net-(J5-Pin_4)*%
X159554000Y-102672500D03*
%TO.P,J5,5,Pin_5_5*%
%TO.N,Net-(J5-Pin_5)*%
X162094000Y-102672500D03*
%TO.P,J5,6,Pin_6_6*%
%TO.N,Net-(J5-Pin_6)*%
X164634000Y-102672500D03*
%TD*%
D16*
%TO.P,TP2,1,1_1*%
%TO.N,Net-(U1A-RGB1)*%
X144018000Y-70739000D03*
%TD*%
%TO.P,TP1,1,1_1*%
%TO.N,Net-(U1A-RGB2)*%
X141224000Y-70739000D03*
%TD*%
D22*
%TO.N,+3.3V*%
X162131000Y-89789000D03*
D23*
X145669000Y-81915000D03*
D24*
X107279000Y-80391000D03*
D23*
X145669000Y-82677000D03*
X161948000Y-95377000D03*
X152429000Y-94488000D03*
D22*
X164719000Y-84339500D03*
X155956000Y-82839500D03*
D23*
X152429000Y-97790000D03*
X145669000Y-83439000D03*
D22*
%TO.N,GNDREF*%
X157480000Y-97282000D03*
D23*
X185674000Y-86868000D03*
D22*
X162179000Y-84836000D03*
D25*
X168656000Y-90678000D03*
D22*
X156591000Y-96647000D03*
X158623000Y-83820000D03*
D25*
X151130000Y-84074000D03*
D22*
X158623000Y-84836000D03*
X164973000Y-92144500D03*
D24*
X162687000Y-69723000D03*
D22*
X159639000Y-86360000D03*
D23*
X185674000Y-81280000D03*
D25*
X168148000Y-90678000D03*
D23*
X185674000Y-80010000D03*
D25*
X143891000Y-84074000D03*
D23*
X185674000Y-74422000D03*
D25*
X143891000Y-84582000D03*
X168148000Y-91694000D03*
D22*
X159639000Y-84836000D03*
D25*
X143383000Y-84582000D03*
X144399000Y-84582000D03*
D22*
X157480000Y-96647000D03*
D25*
X168656000Y-91186000D03*
D22*
X158623000Y-87376000D03*
D24*
X168148000Y-69723000D03*
D25*
X150114000Y-84074000D03*
X150114000Y-84582000D03*
X150622000Y-84074000D03*
X144399000Y-84074000D03*
D23*
X185674000Y-94996000D03*
X185674000Y-100584000D03*
D24*
X110962000Y-80331000D03*
D22*
X169799000Y-84244500D03*
D23*
X185674000Y-88138000D03*
D25*
X143383000Y-84074000D03*
D22*
X159639000Y-83820000D03*
D26*
X102616000Y-81788000D03*
D24*
X165354000Y-69723000D03*
D22*
X162179000Y-83820000D03*
X161163000Y-83820000D03*
D24*
X154305000Y-69723000D03*
D25*
X168656000Y-91694000D03*
D23*
X185674000Y-107442000D03*
D22*
X159639000Y-87376000D03*
D23*
X185674000Y-93726000D03*
D22*
X161163000Y-84836000D03*
D23*
X185674000Y-73152000D03*
D22*
X161163000Y-87376000D03*
D25*
X150622000Y-84582000D03*
D22*
X161163000Y-86360000D03*
X156591000Y-97282000D03*
D23*
X185674000Y-108712000D03*
D24*
X157099000Y-69723000D03*
D26*
X104206000Y-73787000D03*
D24*
X151511000Y-69723000D03*
X159893000Y-69723000D03*
D23*
X185674000Y-101854000D03*
X162348000Y-98467000D03*
D24*
X171069000Y-69723000D03*
X152527000Y-85471000D03*
D25*
X168148000Y-91186000D03*
D24*
X152654000Y-82296000D03*
D22*
X162179000Y-87376000D03*
X158623000Y-86360000D03*
D25*
X151130000Y-84582000D03*
D22*
X162179000Y-86360000D03*
D24*
%TO.N,+24V*%
X183134000Y-94107000D03*
X183134000Y-87249000D03*
X183134000Y-73660000D03*
X183134000Y-107823000D03*
X183134000Y-100965000D03*
X183134000Y-80391000D03*
D22*
%TO.N,+1.2V*%
X164973000Y-85598000D03*
X155956000Y-84836000D03*
%TO.N,Net-(U1B-IOB_18a)*%
X107696000Y-75184000D03*
X155829000Y-87376000D03*
%TO.N,Net-(J5-Pin_4)*%
X155564000Y-95377000D03*
%TO.N,Net-(J5-Pin_6)*%
X158369000Y-91440000D03*
X154686000Y-96012000D03*
%TO.N,Net-(J5-Pin_5)*%
X158464000Y-98425000D03*
X158877000Y-92202000D03*
%TO.N,Net-(J5-Pin_3)*%
X160865000Y-94869000D03*
D25*
%TO.N,Net-(U1A-RGB0)*%
X163576000Y-76581000D03*
%TO.N,Net-(U1A-RGB1)*%
X162814000Y-77089000D03*
%TO.N,Net-(U1A-RGB2)*%
X161798000Y-77724000D03*
%TD*%
%TO.N,+24V*%
D27*
X201295000Y-112232000D02*
X201295000Y-107188000D01*
D28*
X183134000Y-94107000D02*
X183134000Y-87249000D01*
X183134000Y-107823000D02*
X183134000Y-100965000D01*
X183134000Y-80391000D02*
X183134000Y-73660000D01*
X183134000Y-109347000D02*
X183134000Y-107823000D01*
X186019000Y-112232000D02*
X183134000Y-109347000D01*
X201295000Y-112232000D02*
X186019000Y-112232000D01*
X183134000Y-100965000D02*
X183134000Y-94107000D01*
X183134000Y-87249000D02*
X183134000Y-80391000D01*
%TO.N,+1.2V*%
D29*
X157480000Y-85598000D02*
X164973000Y-85598000D01*
X155956000Y-84836000D02*
X156718000Y-84836000D01*
X156718000Y-84836000D02*
X157480000Y-85598000D01*
%TO.N,Net-(U1B-IOB_18a)*%
D30*
X107696000Y-75184000D02*
X143637000Y-75184000D01*
X143637000Y-75184000D02*
X155829000Y-87376000D01*
%TO.N,Net-(J5-Pin_4)*%
X159554000Y-102672500D02*
X155564000Y-98682500D01*
X155564000Y-98682500D02*
X155564000Y-95377000D01*
%TO.N,Net-(J5-Pin_6)*%
X154686000Y-96012000D02*
X154686000Y-98447968D01*
X155652000Y-103074000D02*
X156883500Y-104305500D01*
X154686000Y-98447968D02*
X155652000Y-99413968D01*
X155652000Y-99413968D02*
X155652000Y-103074000D01*
X156883500Y-104305500D02*
X163001000Y-104305500D01*
X163001000Y-104305500D02*
X164634000Y-102672500D01*
X154686000Y-95123000D02*
X158369000Y-91440000D01*
X154686000Y-96012000D02*
X154686000Y-95123000D01*
%TO.N,Net-(J5-Pin_5)*%
X158464000Y-92615000D02*
X158464000Y-98425000D01*
X158877000Y-92202000D02*
X158464000Y-92615000D01*
%TO.N,Net-(J5-Pin_3)*%
X160041944Y-103850500D02*
X160865000Y-103027444D01*
X158192000Y-103850500D02*
X160041944Y-103850500D01*
X157014000Y-102672500D02*
X158192000Y-103850500D01*
X160865000Y-103027444D02*
X160865000Y-94869000D01*
%TO.N,Net-(U1A-RGB0)*%
X160020000Y-73025000D02*
X149098000Y-73025000D01*
X163576000Y-76581000D02*
X160020000Y-73025000D01*
X149098000Y-73025000D02*
X146812000Y-70739000D01*
%TO.N,Net-(U1A-RGB1)*%
X147320000Y-74041000D02*
X144018000Y-70739000D01*
X162814000Y-77089000D02*
X159766000Y-74041000D01*
X159766000Y-74041000D02*
X147320000Y-74041000D01*
%TO.N,Net-(U1A-RGB2)*%
X158877000Y-74803000D02*
X145288000Y-74803000D01*
X161798000Y-77724000D02*
X158877000Y-74803000D01*
X145288000Y-74803000D02*
X141224000Y-70739000D01*
%TD*%
M02*
