M48
; DRILL file KiCad 10.0.0 date 2026-04-13T19:35:17
; FORMAT={-:-/ absolute / metric / decimal}
; #@! TF.CreationDate,2026-04-13T19:35:17-04:00
; #@! TF.GenerationSoftware,Kicad,Pcbnew,10.0.0
; #@! TF.FileFunction,Plated,1,4,PTH
FMAT,2
METRIC
; #@! TA.AperFunction,Plated,PTH,ViaDrill
T1C0.152
; #@! TA.AperFunction,Plated,PTH,ViaDrill
T2C0.254
; #@! TA.AperFunction,Plated,PTH,ViaDrill
T3C0.300
; #@! TA.AperFunction,Plated,PTH,ViaDrill
T4C0.508
; #@! TA.AperFunction,Plated,PTH,ComponentDrill
T5C0.650
; #@! TA.AperFunction,Plated,PTH,ComponentDrill
T6C0.700
; #@! TA.AperFunction,Plated,PTH,ComponentDrill
T7C1.000
; #@! TA.AperFunction,Plated,PTH,ComponentDrill
T8C1.200
; #@! TA.AperFunction,Plated,PTH,ComponentDrill
T9C1.300
; #@! TA.AperFunction,Plated,PTH,ComponentDrill
T10C1.600
%
G90
G05
T1
X143.383Y-84.074
X143.383Y-84.582
X143.891Y-84.074
X143.891Y-84.582
X144.399Y-84.074
X144.399Y-84.582
X150.114Y-84.074
X150.114Y-84.582
X150.622Y-84.074
X150.622Y-84.582
X151.13Y-84.074
X151.13Y-84.582
X161.798Y-77.724
X162.814Y-77.089
X163.576Y-76.581
X168.148Y-90.678
X168.148Y-91.186
X168.148Y-91.694
X168.656Y-90.678
X168.656Y-91.186
X168.656Y-91.694
T2
X107.696Y-75.184
X145.669Y-81.915
X145.669Y-82.677
X145.669Y-83.439
X152.429Y-94.488
X152.429Y-97.79
X154.686Y-96.012
X155.564Y-95.377
X155.829Y-87.376
X155.956Y-82.84
X155.956Y-84.836
X156.591Y-96.647
X156.591Y-97.282
X157.48Y-96.647
X157.48Y-97.282
X158.369Y-91.44
X158.464Y-98.425
X158.623Y-83.82
X158.623Y-84.836
X158.623Y-86.36
X158.623Y-87.376
X158.877Y-92.202
X159.639Y-83.82
X159.639Y-84.836
X159.639Y-86.36
X159.639Y-87.376
X160.865Y-94.869
X161.163Y-83.82
X161.163Y-84.836
X161.163Y-86.36
X161.163Y-87.376
X161.948Y-95.377
X162.131Y-89.789
X162.179Y-83.82
X162.179Y-84.836
X162.179Y-86.36
X162.179Y-87.376
X162.348Y-98.467
X164.719Y-84.34
X164.973Y-85.598
X164.973Y-92.144
X169.799Y-84.245
X185.674Y-73.152
X185.674Y-74.422
X185.674Y-80.01
X185.674Y-81.28
X185.674Y-86.868
X185.674Y-88.138
X185.674Y-93.726
X185.674Y-94.996
X185.674Y-100.584
X185.674Y-101.854
X185.674Y-107.442
X185.674Y-108.712
T3
X102.616Y-81.788
X104.206Y-73.787
T4
X107.279Y-80.391
X110.962Y-80.331
X151.511Y-69.723
X152.527Y-85.471
X152.654Y-82.296
X154.305Y-69.723
X157.099Y-69.723
X159.893Y-69.723
X162.687Y-69.723
X165.354Y-69.723
X168.148Y-69.723
X171.069Y-69.723
X183.134Y-73.66
X183.134Y-80.391
X183.134Y-87.249
X183.134Y-94.107
X183.134Y-100.965
X183.134Y-107.823
T5
X152.569Y-91.242
X153.839Y-91.242
T6
X141.224Y-70.739
X144.018Y-70.739
X146.812Y-70.739
T7
X151.934Y-102.672
X154.474Y-102.672
X157.014Y-102.672
X159.554Y-102.672
X162.094Y-102.672
X164.634Y-102.672
T8
X84.074Y-82.169
X88.519Y-87.249
X88.519Y-91.054
X92.329Y-81.534
X122.635Y-81.534
X123.27Y-85.344
X126.445Y-87.249
X129.62Y-85.344
X130.255Y-82.169
X134.7Y-92.964
T9
X201.262Y-73.864
X201.262Y-78.864
X201.262Y-83.864
X201.262Y-88.864
X201.262Y-93.864
X201.262Y-98.864
X201.295Y-107.232
X201.295Y-112.232
T10
X85.344Y-85.344
X91.694Y-85.344
T7
G00X80.573Y-101.743
M15
G01X80.573Y-103.743
M16
G05
G00X82.573Y-107.443
M15
G01X84.573Y-107.443
M16
G05
G00X86.573Y-101.743
M15
G01X86.573Y-103.743
M16
G05
M30
