%TF.GenerationSoftware,KiCad,Pcbnew,10.0.0*%
%TF.CreationDate,2026-04-13T19:27:24-04:00*%
%TF.ProjectId,DMX Decoder 6ch iCE40UP5k FPGA,444d5820-4465-4636-9f64-657220366368,2*%
%TF.SameCoordinates,Original*%
%TF.FileFunction,Paste,Top*%
%TF.FilePolarity,Positive*%
%FSLAX46Y46*%
G04 Gerber Fmt 4.6, Leading zero omitted, Abs format (unit mm)*
G04 Created by KiCad (PCBNEW 10.0.0) date 2026-04-13 19:27:24*
%MOMM*%
%LPD*%
G01*
G04 APERTURE LIST*
G04 Aperture macros list*
%AMRoundRect*
0 Rectangle with rounded corners*
0 $1 Rounding radius*
0 $2 $3 $4 $5 $6 $7 $8 $9 X,Y pos of 4 corners*
0 Add a 4 corners polygon primitive as box body*
4,1,4,$2,$3,$4,$5,$6,$7,$8,$9,$2,$3,0*
0 Add four circle primitives for the rounded corners*
1,1,$1+$1,$2,$3*
1,1,$1+$1,$4,$5*
1,1,$1+$1,$6,$7*
1,1,$1+$1,$8,$9*
0 Add four rect primitives between the rounded corners*
20,1,$1+$1,$2,$3,$4,$5,0*
20,1,$1+$1,$4,$5,$6,$7,0*
20,1,$1+$1,$6,$7,$8,$9,0*
20,1,$1+$1,$8,$9,$2,$3,0*%
G04 Aperture macros list end*
%ADD10RoundRect,0.200000X-0.275000X0.200000X-0.275000X-0.200000X0.275000X-0.200000X0.275000X0.200000X0*%
%ADD11RoundRect,0.225000X-0.250000X0.225000X-0.250000X-0.225000X0.250000X-0.225000X0.250000X0.225000X0*%
%ADD12RoundRect,0.225000X-0.225000X-0.250000X0.225000X-0.250000X0.225000X0.250000X-0.225000X0.250000X0*%
%ADD13RoundRect,0.150000X-0.825000X-0.150000X0.825000X-0.150000X0.825000X0.150000X-0.825000X0.150000X0*%
%ADD14RoundRect,0.150000X0.150000X-0.587500X0.150000X0.587500X-0.150000X0.587500X-0.150000X-0.587500X0*%
%ADD15RoundRect,0.200000X0.200000X0.275000X-0.200000X0.275000X-0.200000X-0.275000X0.200000X-0.275000X0*%
%ADD16RoundRect,0.250000X-0.315000X-0.315000X0.315000X-0.315000X0.315000X0.315000X-0.315000X0.315000X0*%
%ADD17RoundRect,0.062500X-0.375000X-0.062500X0.375000X-0.062500X0.375000X0.062500X-0.375000X0.062500X0*%
%ADD18RoundRect,0.062500X-0.062500X-0.375000X0.062500X-0.375000X0.062500X0.375000X-0.062500X0.375000X0*%
%ADD19RoundRect,0.160000X-0.245000X-0.160000X0.245000X-0.160000X0.245000X0.160000X-0.245000X0.160000X0*%
%ADD20RoundRect,0.093750X-0.093750X-0.106250X0.093750X-0.106250X0.093750X0.106250X-0.093750X0.106250X0*%
%ADD21RoundRect,0.225000X0.225000X0.250000X-0.225000X0.250000X-0.225000X-0.250000X0.225000X-0.250000X0*%
%ADD22RoundRect,0.200000X-0.200000X-0.275000X0.200000X-0.275000X0.200000X0.275000X-0.200000X0.275000X0*%
%ADD23RoundRect,0.200000X0.275000X-0.200000X0.275000X0.200000X-0.275000X0.200000X-0.275000X-0.200000X0*%
%ADD24RoundRect,0.225000X0.250000X-0.225000X0.250000X0.225000X-0.250000X0.225000X-0.250000X-0.225000X0*%
%ADD25RoundRect,0.150000X-0.150000X0.825000X-0.150000X-0.825000X0.150000X-0.825000X0.150000X0.825000X0*%
%ADD26RoundRect,0.225000X0.375000X-0.225000X0.375000X0.225000X-0.375000X0.225000X-0.375000X-0.225000X0*%
%ADD27RoundRect,0.160000X-0.160000X0.245000X-0.160000X-0.245000X0.160000X-0.245000X0.160000X0.245000X0*%
%ADD28RoundRect,0.093750X-0.106250X0.093750X-0.106250X-0.093750X0.106250X-0.093750X0.106250X0.093750X0*%
%ADD29RoundRect,0.243750X-0.243750X-0.456250X0.243750X-0.456250X0.243750X0.456250X-0.243750X0.456250X0*%
%ADD30R,0.710000X0.580000*%
%ADD31R,0.750000X0.300000*%
%ADD32R,0.500000X0.600000*%
G04 APERTURE END LIST*
D10*
%TO.C,R16*%
X160062000Y-96132500D03*
X160062000Y-97782500D03*
%TD*%
D11*
%TO.C,C13*%
X166156500Y-90467500D03*
X166156500Y-92017500D03*
%TD*%
D12*
%TO.C,C7*%
X108064000Y-80391000D03*
X109614000Y-80391000D03*
%TD*%
D13*
%TO.C,Q8*%
X185739000Y-99949000D03*
X185739000Y-101219000D03*
X185739000Y-102489000D03*
X185739000Y-103759000D03*
X190689000Y-103759000D03*
X190689000Y-102489000D03*
X190689000Y-101219000D03*
X190689000Y-99949000D03*
%TD*%
%TO.C,Q7*%
X185739000Y-106807000D03*
X185739000Y-108077000D03*
X185739000Y-109347000D03*
X185739000Y-110617000D03*
X190689000Y-110617000D03*
X190689000Y-109347000D03*
X190689000Y-108077000D03*
X190689000Y-106807000D03*
%TD*%
D14*
%TO.C,Q3*%
X179898000Y-93393500D03*
X181798000Y-93393500D03*
X180848000Y-91518500D03*
%TD*%
D15*
%TO.C,R17*%
X154029000Y-96957500D03*
X152379000Y-96957500D03*
%TD*%
D16*
%TO.C,U1*%
X158281000Y-83489500D03*
X158281000Y-84889500D03*
X158281000Y-86289500D03*
X158281000Y-87689500D03*
X159681000Y-83489500D03*
X159681000Y-84889500D03*
X159681000Y-86289500D03*
X159681000Y-87689500D03*
X161081000Y-83489500D03*
X161081000Y-84889500D03*
X161081000Y-86289500D03*
X161081000Y-87689500D03*
X162481000Y-83489500D03*
X162481000Y-84889500D03*
X162481000Y-86289500D03*
X162481000Y-87689500D03*
D17*
X156943500Y-82839500D03*
X156943500Y-83339500D03*
X156943500Y-83839500D03*
X156943500Y-84339500D03*
X156943500Y-84839500D03*
X156943500Y-85339500D03*
X156943500Y-85839500D03*
X156943500Y-86339500D03*
X156943500Y-86839500D03*
X156943500Y-87339500D03*
X156943500Y-87839500D03*
X156943500Y-88339500D03*
D18*
X157631000Y-89027000D03*
X158131000Y-89027000D03*
X158631000Y-89027000D03*
X159131000Y-89027000D03*
X159631000Y-89027000D03*
X160131000Y-89027000D03*
X160631000Y-89027000D03*
X161131000Y-89027000D03*
X161631000Y-89027000D03*
X162131000Y-89027000D03*
X162631000Y-89027000D03*
X163131000Y-89027000D03*
D17*
X163818500Y-88339500D03*
X163818500Y-87839500D03*
X163818500Y-87339500D03*
X163818500Y-86839500D03*
X163818500Y-86339500D03*
X163818500Y-85839500D03*
X163818500Y-85339500D03*
X163818500Y-84839500D03*
X163818500Y-84339500D03*
X163818500Y-83839500D03*
X163818500Y-83339500D03*
X163818500Y-82839500D03*
D18*
X163131000Y-82152000D03*
X162631000Y-82152000D03*
X162131000Y-82152000D03*
X161631000Y-82152000D03*
X161131000Y-82152000D03*
X160631000Y-82152000D03*
X160131000Y-82152000D03*
X159631000Y-82152000D03*
X159131000Y-82152000D03*
X158631000Y-82152000D03*
X158131000Y-82152000D03*
X157631000Y-82152000D03*
%TD*%
D15*
%TO.C,R19*%
X104206000Y-72807000D03*
X102556000Y-72807000D03*
%TD*%
D19*
%TO.C,U5*%
X168442500Y-90842500D03*
X168442500Y-91642500D03*
D20*
X167555000Y-90592500D03*
X167555000Y-91242500D03*
X167555000Y-91892500D03*
X169330000Y-91892500D03*
X169330000Y-91242500D03*
X169330000Y-90592500D03*
%TD*%
D21*
%TO.C,C10*%
X169217500Y-93401500D03*
X167667500Y-93401500D03*
%TD*%
D22*
%TO.C,R13*%
X165841000Y-86614000D03*
X167491000Y-86614000D03*
%TD*%
D21*
%TO.C,C16*%
X155122000Y-84892500D03*
X153572000Y-84892500D03*
%TD*%
D23*
%TO.C,R7*%
X183134000Y-110553000D03*
X183134000Y-108903000D03*
%TD*%
D14*
%TO.C,Q1*%
X179898000Y-107109500D03*
X181798000Y-107109500D03*
X180848000Y-105234500D03*
%TD*%
D13*
%TO.C,Q9*%
X185739000Y-93091000D03*
X185739000Y-94361000D03*
X185739000Y-95631000D03*
X185739000Y-96901000D03*
X190689000Y-96901000D03*
X190689000Y-95631000D03*
X190689000Y-94361000D03*
X190689000Y-93091000D03*
%TD*%
D23*
%TO.C,R12*%
X183134000Y-76263000D03*
X183134000Y-74613000D03*
%TD*%
D14*
%TO.C,Q2*%
X179898000Y-100251500D03*
X181798000Y-100251500D03*
X180848000Y-98376500D03*
%TD*%
D23*
%TO.C,R9*%
X183134000Y-96837000D03*
X183134000Y-95187000D03*
%TD*%
D21*
%TO.C,C8*%
X153979000Y-98608500D03*
X152429000Y-98608500D03*
%TD*%
D15*
%TO.C,R4*%
X177355000Y-86614000D03*
X175705000Y-86614000D03*
%TD*%
D11*
%TO.C,C6*%
X162221000Y-90594500D03*
X162221000Y-92144500D03*
%TD*%
D13*
%TO.C,Q11*%
X185739000Y-79375000D03*
X185739000Y-80645000D03*
X185739000Y-81915000D03*
X185739000Y-83185000D03*
X190689000Y-83185000D03*
X190689000Y-81915000D03*
X190689000Y-80645000D03*
X190689000Y-79375000D03*
%TD*%
D24*
%TO.C,C2*%
X170603000Y-85794500D03*
X170603000Y-84244500D03*
%TD*%
D23*
%TO.C,R20*%
X99441000Y-108521000D03*
X99441000Y-106871000D03*
%TD*%
%TO.C,R11*%
X183134000Y-83121000D03*
X183134000Y-81471000D03*
%TD*%
D14*
%TO.C,Q6*%
X179898000Y-72819500D03*
X181798000Y-72819500D03*
X180848000Y-70944500D03*
%TD*%
D25*
%TO.C,Q14*%
X94869000Y-100395000D03*
X93599000Y-100395000D03*
X92329000Y-100395000D03*
X91059000Y-100395000D03*
X91059000Y-105345000D03*
X92329000Y-105345000D03*
X93599000Y-105345000D03*
X94869000Y-105345000D03*
%TD*%
D15*
%TO.C,R5*%
X177355000Y-79756000D03*
X175705000Y-79756000D03*
%TD*%
%TO.C,R3*%
X177355000Y-90551000D03*
X175705000Y-90551000D03*
%TD*%
D26*
%TO.C,D2*%
X99441000Y-104393000D03*
X99441000Y-101093000D03*
%TD*%
D14*
%TO.C,Q4*%
X179898000Y-86535500D03*
X181798000Y-86535500D03*
X180848000Y-84660500D03*
%TD*%
D27*
%TO.C,U4*%
X150956000Y-84365500D03*
X150156000Y-84365500D03*
D28*
X151206000Y-83478000D03*
X150556000Y-83478000D03*
X149906000Y-83478000D03*
X149906000Y-85253000D03*
X150556000Y-85253000D03*
X151206000Y-85253000D03*
%TD*%
D23*
%TO.C,R10*%
X183134000Y-89979000D03*
X183134000Y-88329000D03*
%TD*%
D15*
%TO.C,R14*%
X154029000Y-93655500D03*
X152379000Y-93655500D03*
%TD*%
%TO.C,R1*%
X177355000Y-107188000D03*
X175705000Y-107188000D03*
%TD*%
D21*
%TO.C,C5*%
X155122000Y-82352500D03*
X153572000Y-82352500D03*
%TD*%
D11*
%TO.C,C15*%
X163872000Y-90594500D03*
X163872000Y-92144500D03*
%TD*%
D15*
%TO.C,R2*%
X177355000Y-100330000D03*
X175705000Y-100330000D03*
%TD*%
%TO.C,R6*%
X177355000Y-72898000D03*
X175705000Y-72898000D03*
%TD*%
%TO.C,R15*%
X154283000Y-88702500D03*
X152633000Y-88702500D03*
%TD*%
D27*
%TO.C,U6*%
X144221000Y-84383000D03*
X143421000Y-84383000D03*
D28*
X144471000Y-83495500D03*
X143821000Y-83495500D03*
X143171000Y-83495500D03*
X143171000Y-85270500D03*
X143821000Y-85270500D03*
X144471000Y-85270500D03*
%TD*%
D25*
%TO.C,U2*%
X106366000Y-75158000D03*
X105096000Y-75158000D03*
X103826000Y-75158000D03*
X102556000Y-75158000D03*
X102556000Y-80108000D03*
X103826000Y-80108000D03*
X105096000Y-80108000D03*
X106366000Y-80108000D03*
%TD*%
D24*
%TO.C,C9*%
X148397000Y-85140500D03*
X148397000Y-83590500D03*
%TD*%
%TO.C,C11*%
X141662000Y-85158000D03*
X141662000Y-83608000D03*
%TD*%
D13*
%TO.C,Q12*%
X185739000Y-72517000D03*
X185739000Y-73787000D03*
X185739000Y-75057000D03*
X185739000Y-76327000D03*
X190689000Y-76327000D03*
X190689000Y-75057000D03*
X190689000Y-73787000D03*
X190689000Y-72517000D03*
%TD*%
%TO.C,Q10*%
X185739000Y-86233000D03*
X185739000Y-87503000D03*
X185739000Y-88773000D03*
X185739000Y-90043000D03*
X190689000Y-90043000D03*
X190689000Y-88773000D03*
X190689000Y-87503000D03*
X190689000Y-86233000D03*
%TD*%
D24*
%TO.C,C1*%
X168952000Y-85794500D03*
X168952000Y-84244500D03*
%TD*%
D12*
%TO.C,C4*%
X165891000Y-84257500D03*
X167441000Y-84257500D03*
%TD*%
D15*
%TO.C,R18*%
X154029000Y-95306500D03*
X152379000Y-95306500D03*
%TD*%
D29*
%TO.C,D1*%
X152393500Y-86797500D03*
X154268500Y-86797500D03*
%TD*%
D21*
%TO.C,C12*%
X144596000Y-82097000D03*
X143046000Y-82097000D03*
%TD*%
D14*
%TO.C,Q5*%
X179898000Y-79677500D03*
X181798000Y-79677500D03*
X180848000Y-77802500D03*
%TD*%
D24*
%TO.C,C3*%
X162348000Y-97605500D03*
X162348000Y-96055500D03*
%TD*%
D21*
%TO.C,C14*%
X151331000Y-82079500D03*
X149781000Y-82079500D03*
%TD*%
D23*
%TO.C,R8*%
X183134000Y-103695000D03*
X183134000Y-102045000D03*
%TD*%
D30*
%TO.C,U3*%
X157451500Y-97320000D03*
X157451500Y-96595000D03*
X156576500Y-97320000D03*
X156576500Y-96595000D03*
D31*
X158464000Y-97707500D03*
X158464000Y-97207500D03*
X158464000Y-96707500D03*
X158464000Y-96207500D03*
X155564000Y-96207500D03*
X155564000Y-96707500D03*
X155564000Y-97207500D03*
X155564000Y-97707500D03*
%TD*%
D32*
%TO.C,Y1*%
X162748000Y-94658500D03*
X162748000Y-93558500D03*
X161948000Y-93558500D03*
X161948000Y-94658500D03*
%TD*%
M02*
